<svg width="56" height="56" viewBox="0 0 56 56" fill="none" xmlns="http://www.w3.org/2000/svg">
<path d="M45.6907 18.4714L45.6898 18.4393C45.6716 18.0384 45.6592 17.615 45.6522 17.1445C45.6182 14.8468 43.7916 12.9468 41.4942 12.8184C36.7036 12.5507 32.9976 10.9886 29.8311 7.9025L29.8041 7.87675C28.771 6.92975 27.2133 6.92975 26.1805 7.87675L26.1531 7.9025C22.9866 10.9886 19.2807 12.5507 14.4897 12.8184C12.1923 12.9468 10.366 14.8468 10.3317 17.1445C10.325 17.615 10.3126 18.0384 10.2945 18.4393L10.2926 18.5143C10.1995 23.3994 10.0838 29.479 12.1173 34.9976C13.236 38.0319 14.9294 40.67 17.1511 42.8381C19.6815 45.3074 22.9958 47.2679 27.0025 48.665C27.131 48.7098 27.2638 48.7461 27.3983 48.7731L27.4056 48.7747C27.6002 48.8138 27.796 48.8332 27.9921 48.8332C28.188 48.8332 28.3838 48.8138 28.5783 48.7747C28.716 48.7473 28.852 48.7101 28.9836 48.6644C32.9849 47.265 36.2954 45.3036 38.8239 42.8346C41.0447 40.6656 42.7384 38.0268 43.8577 34.9919C45.8992 29.4568 45.7835 23.3657 45.6907 18.4714ZM41.5638 34.1457C39.4187 39.9621 35.0398 43.9561 28.1768 46.3562C28.1523 46.3647 28.1263 46.3717 28.0993 46.3771C28.0293 46.3911 27.9581 46.3914 27.8882 46.3778L27.8844 46.3771C27.8573 46.3717 27.8313 46.3647 27.8071 46.3562C20.9372 43.9605 16.5554 39.9685 14.4118 34.152C12.5372 29.0654 12.6434 23.4846 12.7372 18.5607L12.7378 18.5337C12.7566 18.1128 12.7693 17.67 12.7766 17.1805C12.7919 16.1603 13.6044 15.3167 14.6261 15.2594C17.3374 15.1081 19.719 14.5842 21.9074 13.6579C24.0926 12.7329 26.0336 11.4289 27.8408 9.67156C27.9324 9.594 28.0516 9.594 28.1434 9.67156C29.9503 11.4289 31.8914 12.7329 34.0769 13.6579C36.2649 14.5842 38.6469 15.1081 41.3579 15.2594C42.3799 15.3167 43.1924 16.1603 43.2073 17.1805C43.2147 17.67 43.2274 18.1128 43.2464 18.5337C43.3399 23.4633 43.4435 29.0483 41.5638 34.1457Z" fill="#FDB719" fill-opacity="0.8"/>
<path d="M27.9936 20.5146C27.3184 20.5146 26.771 21.0621 26.771 21.7373V28.6211C26.771 29.2963 27.3184 29.8437 27.9936 29.8437C28.6688 29.8437 29.2159 29.2963 29.2159 28.6211V21.7373C29.2159 21.0621 28.6688 20.5146 27.9936 20.5146Z" fill="#FDB719" fill-opacity="0.8"/>
<path d="M29.1924 34.1955C29.1841 34.1567 29.1746 34.1173 29.1631 34.0798C29.1517 34.0416 29.1377 34.0041 29.1224 33.9672C29.1068 33.9307 29.0897 33.8941 29.0709 33.8588C29.0522 33.8239 29.0318 33.7889 29.0099 33.7561C28.988 33.7228 28.9641 33.6903 28.939 33.6592C28.9136 33.6284 28.8859 33.5982 28.8583 33.5705C28.8296 33.5419 28.7994 33.5152 28.7686 33.4898C28.7375 33.4646 28.705 33.4402 28.6723 33.4179C28.6389 33.396 28.6049 33.3756 28.569 33.3569C28.534 33.3381 28.4981 33.3213 28.4612 33.3057C28.4247 33.2908 28.3862 33.2771 28.349 33.2656C28.3105 33.2542 28.2714 33.2437 28.2323 33.2364C28.1932 33.2281 28.1532 33.2224 28.1141 33.2186C28.0343 33.2103 27.9529 33.2103 27.8728 33.2186C27.8337 33.2224 27.794 33.2281 27.7549 33.2364C27.7154 33.2437 27.6763 33.2542 27.6382 33.2656C27.6007 33.2771 27.5622 33.2911 27.5257 33.3057C27.4891 33.321 27.4532 33.3381 27.4182 33.3569C27.3823 33.3756 27.348 33.396 27.3146 33.4179C27.2822 33.4402 27.2494 33.4646 27.2186 33.4898C27.1874 33.5152 27.1572 33.5419 27.1289 33.5705C27.101 33.5982 27.0733 33.6284 27.0482 33.6592C27.0228 33.6903 26.9992 33.7228 26.9773 33.7561C26.9551 33.7889 26.9347 33.8239 26.916 33.8588C26.8972 33.8941 26.8803 33.9307 26.8648 33.9672C26.8492 34.0041 26.8362 34.0416 26.8241 34.0798C26.8126 34.1173 26.8028 34.1564 26.7945 34.1955C26.7872 34.2346 26.7809 34.2746 26.7777 34.3147C26.7735 34.3544 26.771 34.3945 26.771 34.4345C26.771 34.4742 26.7735 34.5149 26.7777 34.555C26.7809 34.5941 26.7872 34.6341 26.7945 34.6732C26.8028 34.7123 26.8126 34.7514 26.8241 34.7896C26.8362 34.8271 26.8492 34.8656 26.8648 34.9021C26.8803 34.939 26.8972 34.9755 26.916 35.0105C26.9347 35.0458 26.9551 35.0798 26.9773 35.1132C26.9992 35.1466 27.0228 35.1793 27.0482 35.2095C27.0733 35.2413 27.101 35.2705 27.1289 35.2992C27.1572 35.3278 27.1874 35.3548 27.2186 35.3799C27.2494 35.4053 27.2822 35.4289 27.3146 35.4514C27.348 35.4727 27.3823 35.494 27.4182 35.5128C27.4532 35.5315 27.4891 35.5484 27.5257 35.564C27.5622 35.5789 27.6007 35.5926 27.6382 35.604C27.6763 35.6155 27.7154 35.625 27.7549 35.6333C27.794 35.6415 27.8337 35.6472 27.8728 35.6514C27.9129 35.6552 27.9535 35.6568 27.9936 35.6568C28.0333 35.6568 28.0743 35.6552 28.1141 35.6514C28.1532 35.6472 28.1932 35.6415 28.2323 35.6333C28.2714 35.625 28.3105 35.6151 28.349 35.604C28.3862 35.5926 28.4247 35.5786 28.4612 35.564C28.4981 35.5487 28.534 35.5315 28.569 35.5128C28.6049 35.494 28.6389 35.4727 28.6723 35.4514C28.705 35.4289 28.7375 35.4053 28.7686 35.3799C28.7994 35.3545 28.8296 35.3278 28.8583 35.2992C28.8859 35.2705 28.9136 35.2413 28.939 35.2095C28.9641 35.1793 28.988 35.1466 29.0099 35.1132C29.0318 35.0798 29.0522 35.0458 29.0709 35.0105C29.0897 34.9755 29.1068 34.939 29.1224 34.9021C29.1377 34.8656 29.1517 34.8271 29.1631 34.7896C29.1746 34.7514 29.1841 34.7123 29.1924 34.6732C29.1997 34.6341 29.2063 34.5941 29.2102 34.555C29.2143 34.5149 29.2159 34.4742 29.2159 34.4345C29.2159 34.3945 29.2143 34.3547 29.2102 34.3147C29.206 34.2746 29.1997 34.2349 29.1924 34.1955Z" fill="#FDB719" fill-opacity="0.8"/>
</svg>
